# xmcd
#
# Track frame offsets: 
#        150
#        12375
#        23580
#        33565
#        45827
#        56402
#        69767
#        81777
#        93515
#        104947
#        114682
#        128367
#        141992
#        155367
#        168145
#        184622
#        216490
#        229127
#        242890
#        253577
#        275122
#        286625
#        299477
#        311637
#        323872
#
# Disc length: 4476 seconds
#
# Revision: 4
# Processed by: cddbd v1.5.2PL0 Copyright (c) Steve Scherf et al.
# Submitted via: ExactAudioCopy v0.99pb4
#
DISCID=65117a19
DTITLE=Johnnie Taylor - Lifetime - A Retrospective Of Soul, Blues, and G
DTITLE=ospel (1956-1999) [Disc 1]
DYEAR=2000
DGENRE=Soul
TTITLE0=I Dreamed Heaven Was Like This [with The Highway Q.C.'s]
TTITLE1=Heaven Is My Home [Take 1, with The Soul Stirrers]
TTITLE2=The Love Of God [Take 7, with The Soul Stirrers]
TTITLE3=Out On A Hill [Take 1, with The Soul Stirrers]
TTITLE4=Until Then [Take 3, with The Soul Stirrers]
TTITLE5=When The Gates Swing Open [with The Soul Stirrers]
TTITLE6=Never, Never
TTITLE7=Rome (Wasn't Built In A Day)
TTITLE8=Dance What You Wanna
TTITLE9=Baby, We've Got Love
TTITLE10=I Had A Dream
TTITLE11=Easy Lovin'
TTITLE12=I've Got To Love Somebody's Baby
TTITLE13=Just The One (I've Been Looking For)
TTITLE14=Part Time Love [Take 2]
TTITLE15=Sixteen Tons [Take 6]
TTITLE16=Somebody's Sleeping In My Bed
TTITLE17=Blues in the Night [Take 1]
TTITLE18=Save Your Love For Me [Take 2]
TTITLE19=I Need Lots Of Love
TTITLE20=You Can't Win With A Losing Hand [Take 3]
TTITLE21=Rumors
TTITLE22=You Don't Know Like I Know [Take 3]
TTITLE23=Twenty Years From Today [Take 4]
TTITLE24=Twenty Years From Today [Take 7]
EXTD=Label: Fantasy Inc. - Stax Records\n3SCD-4432-2
EXTT0=
EXTT1=
EXTT2=
EXTT3=
EXTT4=
EXTT5=
EXTT6=
EXTT7=
EXTT8=
EXTT9=
EXTT10=
EXTT11=
EXTT12=
EXTT13=
EXTT14=
EXTT15=
EXTT16=
EXTT17=
EXTT18=
EXTT19=
EXTT20=
EXTT21=
EXTT22=
EXTT23=
EXTT24=
PLAYORDER=
